<?xml version="1.0" encoding="UTF-8" standalone="no"?><svg xmlns="http://www.w3.org/2000/svg" xmlns:xlink="http://www.w3.org/1999/xlink" contentScriptType="application/ecmascript" contentStyleType="text/css" height="374px" preserveAspectRatio="none" style="width:542px;height:374px;" version="1.1" viewBox="0 0 542 374" width="542px" zoomAndPan="magnify"><defs><filter height="300%" id="f196iu4edj740e" width="300%" x="-1" y="-1"><feGaussianBlur result="blurOut" stdDeviation="2.0"/><feColorMatrix in="blurOut" result="blurOut2" type="matrix" values="0 0 0 0 0 0 0 0 0 0 0 0 0 0 0 0 0 0 .4 0"/><feOffset dx="4.0" dy="4.0" in="blurOut2" result="blurOut3"/><feBlend in="SourceGraphic" in2="blurOut3" mode="normal"/></filter></defs><g><ellipse cx="403.84" cy="18" fill="#000000" filter="url(#f196iu4edj740e)" rx="10" ry="10" style="stroke: none; stroke-width: 1.0;"/><rect fill="#D3D3D3" filter="url(#f196iu4edj740e)" height="40" rx="12.5" ry="12.5" style="stroke: #D3D3D3; stroke-width: 1.5;" width="66" x="370.84" y="89"/><text fill="#000000" font-family="Avenir" font-size="14" lengthAdjust="spacingAndGlyphs" textLength="56" x="375.84" y="113.438">Stopped</text><rect fill="#D3D3D3" filter="url(#f196iu4edj740e)" height="40" rx="12.5" ry="12.5" style="stroke: #D3D3D3; stroke-width: 1.5;" width="63" x="270.34" y="206"/><text fill="#000000" font-family="Avenir" font-size="14" lengthAdjust="spacingAndGlyphs" textLength="53" x="275.34" y="230.438">Working</text><rect fill="#D3D3D3" filter="url(#f196iu4edj740e)" height="40" rx="12.5" ry="12.5" style="stroke: #D3D3D3; stroke-width: 1.5;" width="110" x="351.84" y="323"/><text fill="#000000" font-family="Avenir" font-size="14" lengthAdjust="spacingAndGlyphs" textLength="100" x="356.84" y="347.438">WaitingForNext</text><rect fill="#D3D3D3" filter="url(#f196iu4edj740e)" height="40" rx="12.5" ry="12.5" style="stroke: #D3D3D3; stroke-width: 1.5;" width="50" x="82.84" y="323"/><text fill="#000000" font-family="Avenir" font-size="14" lengthAdjust="spacingAndGlyphs" textLength="36" x="89.84" y="347.438">Break</text><!--MD5=[620baed8f25f015c0eaeea776640b308]
link *start to Stopped--><path d="M403.84,28.19 C403.84,41.18 403.84,65.38 403.84,83.73 " fill="none" id="*start-&gt;Stopped" style="stroke: #A80036; stroke-width: 1.0;"/><polygon fill="#A80036" points="403.84,88.74,407.84,79.74,403.84,83.74,399.84,79.74,403.84,88.74" style="stroke: #A80036; stroke-width: 1.0;"/><!--MD5=[3961f00532336ff95314d988bf038428]
link Stopped to Working--><path d="M370.78,115.55 C346.02,121.63 313.79,134.06 297.84,159 C290.03,171.21 290.9,187.43 293.78,200.73 " fill="none" id="Stopped-&gt;Working" style="stroke: #A80036; stroke-width: 1.0;"/><polygon fill="#A80036" points="295.02,205.86,296.8049,196.1742,293.851,200.9986,289.0266,198.0447,295.02,205.86" style="stroke: #A80036; stroke-width: 1.0;"/><text fill="#000000" font-family="sans-serif" font-size="13" lengthAdjust="spacingAndGlyphs" textLength="61" x="298.84" y="172.5684">mob start</text><!--MD5=[27cf03b2ed87c951c7131ffd45e7ab37]
link Working to Stopped--><path d="M331.07,205.84 C342.43,197.52 355.04,187.13 364.84,176 C375.96,163.36 385.61,147.11 392.53,133.89 " fill="none" id="Working-&gt;Stopped" style="stroke: #A80036; stroke-width: 1.0;"/><polygon fill="#A80036" points="394.95,129.17,387.2996,135.3726,392.6797,133.6249,394.4274,139.005,394.95,129.17" style="stroke: #A80036; stroke-width: 1.0;"/><text fill="#000000" font-family="sans-serif" font-size="13" lengthAdjust="spacingAndGlyphs" textLength="63" x="378.84" y="172.5684">mob done</text><!--MD5=[b27179e7e5deb87d867ce71b1cf84a8d]
link Working to WaitingForNext--><path d="M332.84,246.17 C344.66,254.42 357.72,264.76 367.84,276 C379.1,288.51 388.75,304.77 395.64,318.02 " fill="none" id="Working-&gt;WaitingForNext" style="stroke: #A80036; stroke-width: 1.0;"/><polygon fill="#A80036" points="398.05,322.75,397.5274,312.915,395.7797,318.2951,390.3996,316.5474,398.05,322.75" style="stroke: #A80036; stroke-width: 1.0;"/><text fill="#000000" font-family="sans-serif" font-size="13" lengthAdjust="spacingAndGlyphs" textLength="60" x="381.84" y="289.5684">mob next</text><!--MD5=[5cfb33c1443f8dbf6a93577da397148d]
link WaitingForNext to Working--><path d="M351.67,330.89 C330.83,323.73 309.19,312.02 296.84,293 C288.94,280.83 290.05,264.62 293.2,251.3 " fill="none" id="WaitingForNext-&gt;Working" style="stroke: #A80036; stroke-width: 1.0;"/><polygon fill="#A80036" points="294.55,246.17,288.3957,253.8593,293.2803,251.0061,296.1335,255.8907,294.55,246.17" style="stroke: #A80036; stroke-width: 1.0;"/><text fill="#000000" font-family="sans-serif" font-size="13" lengthAdjust="spacingAndGlyphs" textLength="61" x="297.84" y="289.5684">mob start</text><!--MD5=[0c0d2d9ab1e16c2a84bfc9273d2f7db3]
link Working to Break--><path d="M270.25,227.43 C202.08,229.09 44.68,237.15 11.84,276 C-10.87,302.87 41.6,323.7 77.57,334.29 " fill="none" id="Working-&gt;Break" style="stroke: #A80036; stroke-width: 1.0;"/><polygon fill="#A80036" points="82.75,335.77,75.2126,329.4307,77.9462,334.3832,72.9937,337.1168,82.75,335.77" style="stroke: #A80036; stroke-width: 1.0;"/><text fill="#000000" font-family="sans-serif" font-size="13" lengthAdjust="spacingAndGlyphs" textLength="144" x="12.84" y="289.5684">mob next (when break)</text><!--MD5=[a2d5c5cf9dc8673de45d8ce7c558c980]
link Break to Working--><path d="M132.94,327.12 C166.7,307.11 226.96,271.38 265.63,248.46 " fill="none" id="Break-&gt;Working" style="stroke: #A80036; stroke-width: 1.0;"/><polygon fill="#A80036" points="270.24,245.73,260.46,246.8922,265.9425,248.2857,264.549,253.7682,270.24,245.73" style="stroke: #A80036; stroke-width: 1.0;"/><text fill="#000000" font-family="sans-serif" font-size="13" lengthAdjust="spacingAndGlyphs" textLength="61" x="217.84" y="289.5684">mob start</text><!--MD5=[2712d7edf8edb66583f354b3cc07cb27]
link WaitingForNext to Stopped--><path d="M429.99,322.9 C438.22,314.66 446.5,304.32 450.84,293 C472.14,237.39 473.06,214.26 450.84,159 C446.91,149.23 439.99,140.3 432.66,132.83 " fill="none" id="WaitingForNext-&gt;Stopped" style="stroke: #A80036; stroke-width: 1.0;"/><polygon fill="#A80036" points="429.03,129.28,432.6582,138.4362,432.6011,132.7796,438.2576,132.7225,429.03,129.28" style="stroke: #A80036; stroke-width: 1.0;"/><text fill="#000000" font-family="sans-serif" font-size="13" lengthAdjust="spacingAndGlyphs" textLength="63" x="467.84" y="231.0684">mob done</text><!--MD5=[139b2a32311e42db705d4eaf5b15affe]
@startuml
skinparam state {
  BackgroundColor LightGray
  BorderColor LightGray
  FontName Avenir
}


[*] - -> Stopped
hide empty description
Stopped - -> Working: mob start
Working - -> WaitingForNext: mob next
Working - -> Break: mob next (when break)
Break - -> Working: mob start
WaitingForNext - -> Stopped: mob done
WaitingForNext - -> Working: mob start
Working - -> Stopped: mob done
@enduml

PlantUML version 1.2020.05(Thu Mar 19 22:17:32 CET 2020)
(GPL source distribution)
Java Runtime: OpenJDK Runtime Environment
JVM: OpenJDK 64-Bit Server VM
Java Version: 13.0.2+8
Operating System: Mac OS X
Default Encoding: UTF-8
Language: en
Country: SE
--></g></svg>