<?xml version="1.0" encoding="UTF-8" standalone="no"?><svg xmlns="http://www.w3.org/2000/svg" xmlns:xlink="http://www.w3.org/1999/xlink" contentScriptType="application/ecmascript" contentStyleType="text/css" height="374px" preserveAspectRatio="none" style="width:255px;height:374px;" version="1.1" viewBox="0 0 255 374" width="255px" zoomAndPan="magnify"><defs><filter height="300%" id="f37cybzssgdp7" width="300%" x="-1" y="-1"><feGaussianBlur result="blurOut" stdDeviation="2.0"/><feColorMatrix in="blurOut" result="blurOut2" type="matrix" values="0 0 0 0 0 0 0 0 0 0 0 0 0 0 0 0 0 0 .4 0"/><feOffset dx="4.0" dy="4.0" in="blurOut2" result="blurOut3"/><feBlend in="SourceGraphic" in2="blurOut3" mode="normal"/></filter></defs><g><ellipse cx="115.61" cy="18" fill="#000000" filter="url(#f37cybzssgdp7)" rx="10" ry="10" style="stroke: none; stroke-width: 1.0;"/><rect fill="#D3D3D3" filter="url(#f37cybzssgdp7)" height="40" rx="12.5" ry="12.5" style="stroke: #D3D3D3; stroke-width: 1.5;" width="66" x="82.61" y="89"/><text fill="#000000" font-family="Avenir" font-size="14" lengthAdjust="spacingAndGlyphs" textLength="56" x="87.61" y="113.438">Stopped</text><rect fill="#D3D3D3" filter="url(#f37cybzssgdp7)" height="40" rx="12.5" ry="12.5" style="stroke: #D3D3D3; stroke-width: 1.5;" width="63" x="27.11" y="206"/><text fill="#000000" font-family="Avenir" font-size="14" lengthAdjust="spacingAndGlyphs" textLength="53" x="32.11" y="230.438">Working</text><rect fill="#D3D3D3" filter="url(#f37cybzssgdp7)" height="40" rx="12.5" ry="12.5" style="stroke: #D3D3D3; stroke-width: 1.5;" width="110" x="62.61" y="323"/><text fill="#000000" font-family="Avenir" font-size="14" lengthAdjust="spacingAndGlyphs" textLength="100" x="67.61" y="347.438">WaitingForNext</text><!--MD5=[620baed8f25f015c0eaeea776640b308]
link *start to Stopped--><path d="M115.61,28.19 C115.61,41.18 115.61,65.38 115.61,83.73 " fill="none" id="*start-&gt;Stopped" style="stroke: #A80036; stroke-width: 1.0;"/><polygon fill="#A80036" points="115.61,88.74,119.61,79.74,115.61,83.74,111.61,79.74,115.61,88.74" style="stroke: #A80036; stroke-width: 1.0;"/><!--MD5=[3961f00532336ff95314d988bf038428]
link Stopped to Working--><path d="M82.55,115.55 C57.79,121.63 25.55,134.06 9.61,159 C0.05,173.95 11.33,189.94 25.46,202.44 " fill="none" id="Stopped-&gt;Working" style="stroke: #A80036; stroke-width: 1.0;"/><polygon fill="#A80036" points="29.51,205.87,25.2441,196.9929,25.7007,202.6313,20.0623,203.0879,29.51,205.87" style="stroke: #A80036; stroke-width: 1.0;"/><text fill="#000000" font-family="sans-serif" font-size="13" lengthAdjust="spacingAndGlyphs" textLength="61" x="10.61" y="172.5684">mob start</text><!--MD5=[27cf03b2ed87c951c7131ffd45e7ab37]
link Working to Stopped--><path d="M68.18,205.69 C77.97,185.93 93.21,155.19 103.76,133.91 " fill="none" id="Working-&gt;Stopped" style="stroke: #A80036; stroke-width: 1.0;"/><polygon fill="#A80036" points="106.07,129.25,98.4754,135.5207,103.8397,133.725,105.6354,139.0893,106.07,129.25" style="stroke: #A80036; stroke-width: 1.0;"/><text fill="#000000" font-family="sans-serif" font-size="13" lengthAdjust="spacingAndGlyphs" textLength="63" x="91.61" y="172.5684">mob done</text><!--MD5=[b27179e7e5deb87d867ce71b1cf84a8d]
link Working to WaitingForNext--><path d="M31.37,246.06 C16.23,259.09 2.33,276.86 12.61,293 C22.88,309.13 40,320.04 57.47,327.38 " fill="none" id="Working-&gt;WaitingForNext" style="stroke: #A80036; stroke-width: 1.0;"/><polygon fill="#A80036" points="62.4,329.35,55.5293,322.2936,57.7576,327.493,52.5581,329.7214,62.4,329.35" style="stroke: #A80036; stroke-width: 1.0;"/><text fill="#000000" font-family="sans-serif" font-size="13" lengthAdjust="spacingAndGlyphs" textLength="60" x="13.61" y="289.5684">mob next</text><!--MD5=[5cfb33c1443f8dbf6a93577da397148d]
link WaitingForNext to Working--><path d="M107.7,322.69 C97.56,302.93 81.79,272.19 70.87,250.91 " fill="none" id="WaitingForNext-&gt;Working" style="stroke: #A80036; stroke-width: 1.0;"/><polygon fill="#A80036" points="68.48,246.25,69.0404,256.0829,70.7674,250.6961,76.1542,252.4231,68.48,246.25" style="stroke: #A80036; stroke-width: 1.0;"/><text fill="#000000" font-family="sans-serif" font-size="13" lengthAdjust="spacingAndGlyphs" textLength="61" x="93.61" y="289.5684">mob start</text><!--MD5=[2712d7edf8edb66583f354b3cc07cb27]
link WaitingForNext to Stopped--><path d="M142.28,322.62 C150.71,314.49 159.14,304.28 163.61,293 C185.53,237.62 186.11,214.14 163.61,159 C159.59,149.15 152.52,140.2 145.03,132.73 " fill="none" id="WaitingForNext-&gt;Stopped" style="stroke: #A80036; stroke-width: 1.0;"/><polygon fill="#A80036" points="141.33,129.18,145.0689,138.2916,144.9432,132.6361,150.5987,132.5104,141.33,129.18" style="stroke: #A80036; stroke-width: 1.0;"/><text fill="#000000" font-family="sans-serif" font-size="13" lengthAdjust="spacingAndGlyphs" textLength="63" x="180.61" y="231.0684">mob done</text><!--MD5=[428d80fbf6c16db4cb6da9dd2555d50d]
@startuml
skinparam state {
  BackgroundColor LightGray
  BorderColor LightGray
  FontName Avenir
}


[*] - -> Stopped
hide empty description
Stopped - -> Working: mob start
Working - -> WaitingForNext: mob next
WaitingForNext - -> Stopped: mob done
WaitingForNext - -> Working: mob start
Working - -> Stopped: mob done
@enduml

PlantUML version 1.2020.05(Thu Mar 19 22:17:32 CET 2020)
(GPL source distribution)
Java Runtime: OpenJDK Runtime Environment
JVM: OpenJDK 64-Bit Server VM
Java Version: 13.0.2+8
Operating System: Mac OS X
Default Encoding: UTF-8
Language: en
Country: SE
--></g></svg>