<?xml version="1.0" encoding="UTF-8" standalone="no"?>
<!DOCTYPE svg PUBLIC "-//W3C//DTD SVG 1.1//EN" "http://www.w3.org/Graphics/SVG/1.1/DTD/svg11.dtd">
<svg width="100%" height="100%" viewBox="0 0 1777 2848" version="1.1" xmlns="http://www.w3.org/2000/svg" xmlns:xlink="http://www.w3.org/1999/xlink" xml:space="preserve" xmlns:serif="http://www.serif.com/" style="fill-rule:evenodd;clip-rule:evenodd;stroke-linecap:round;stroke-linejoin:round;stroke-miterlimit:1.5;">
    <g id="Artboard1" transform="matrix(1.0644,0,0,1.01153,-159.888,-124.566)">
        <rect x="150.214" y="123.146" width="1669.27" height="2814.6" style="fill:none;"/>
        <g id="Lines" transform="matrix(1,0,0,1,186.521,6.96782)">
            <g id="dotted-line--Curve-" serif:id="dotted line (Curve)" transform="matrix(0.939497,0,0,1.38792,-79.1837,-238.694)">
                <path d="M508.04,388.776L508.04,2150.53" style="fill:none;stroke:rgb(103,103,103);stroke-width:2.56px;stroke-dasharray:25.64,10.26,0,0;"/>
            </g>
            <g id="trunk" transform="matrix(0.939497,0,0,1.12718,-79.1837,78.3998)">
                <path d="M508.04,388.776L508.04,2150.53" style="fill:none;stroke:rgb(103,103,103);stroke-width:2.91px;"/>
            </g>
            <g transform="matrix(0.436767,-0.966996,0.941878,0.404995,-368.862,2807.28)">
                <path d="M546.251,603.185L730.136,787.07" style="fill:none;stroke:rgb(103,103,103);stroke-width:2.81px;"/>
            </g>
            <g transform="matrix(0.468411,-0.979896,0.973522,0.392095,-257.19,2045.61)">
                <path d="M546.251,603.185L730.136,787.07" style="fill:none;stroke:rgb(103,103,103);stroke-width:2.69px;"/>
            </g>
            <g transform="matrix(1.0364,-0.322661,0.471612,1.02332,-264.712,1323.1)">
                <path d="M546.251,603.185L730.136,787.07" style="fill:none;stroke:rgb(103,103,103);stroke-width:2.52px;"/>
            </g>
            <g transform="matrix(1.02756,-0.326767,0.462773,1.01921,-263.453,774.789)">
                <path d="M546.251,603.185L730.136,787.07" style="fill:none;stroke:rgb(103,103,103);stroke-width:2.55px;"/>
            </g>
            <g transform="matrix(0.462576,-0.995746,0.979357,0.407945,-257.522,1477.02)">
                <path d="M546.251,603.185L730.136,787.07" style="fill:none;stroke:rgb(103,103,103);stroke-width:2.69px;"/>
            </g>
            <g transform="matrix(0.642399,-0.505723,0.0776082,0.840255,0.39482,322.338)">
                <path d="M546.251,603.185L730.136,787.07" style="fill:none;stroke:rgb(103,103,103);stroke-width:5.28px;"/>
            </g>
            <g transform="matrix(1.00336,-0.338012,0.438571,1.00797,-226.733,218.938)">
                <path d="M546.251,603.185L730.136,787.07" style="fill:none;stroke:rgb(103,103,103);stroke-width:2.63px;"/>
            </g>
            <g transform="matrix(0.939497,0,0,0.839084,78.4143,337.998)">
                <path d="M508.04,388.776L508.04,2150.53" style="fill:none;stroke:rgb(103,103,103);stroke-width:3.37px;"/>
            </g>
            <g transform="matrix(0.699134,0.55969,-0.699134,0.55969,917.789,1292.7)">
                <path d="M546.251,603.185L730.136,787.07" style="fill:none;stroke:rgb(103,103,103);stroke-width:3.9px;"/>
            </g>
            <g transform="matrix(0.699134,0.55969,-0.699134,0.55969,917.819,170.902)">
                <path d="M546.251,603.185L730.136,787.07" style="fill:none;stroke:rgb(103,103,103);stroke-width:3.9px;"/>
            </g>
            <g transform="matrix(0.699134,0.55969,-0.699134,0.55969,911.831,741.031)">
                <path d="M546.251,603.185L730.136,787.07" style="fill:none;stroke:rgb(103,103,103);stroke-width:3.9px;"/>
            </g>
        </g>
        <g id="Commits" transform="matrix(1,0,0,1,186.521,6.96782)">
            <g id="_3" serif:id="3">
                <g transform="matrix(0.46548,-0.489808,0.46548,0.489808,368.059,1591.78)">
                    <circle cx="508.04" cy="580.926" r="54.534" style="fill:rgb(91,204,209);"/>
                </g>
                <g transform="matrix(0.939497,0,0,0.988599,552.782,1122.76)">
                    <text x="328.504px" y="528.241px" style="font-family:'Avenir-Book', 'Avenir';font-size:50px;">3</text>
                </g>
            </g>
            <g id="_31" serif:id="3">
                <g transform="matrix(0.46548,-0.489808,0.46548,0.489808,48.8249,1718.33)">
                    <circle cx="508.04" cy="580.926" r="54.534" style="fill:rgb(91,204,209);"/>
                </g>
                <g transform="matrix(0.939497,-5.48783e-17,0,0.988599,233.548,1249.31)">
                    <text x="328.504px" y="528.241px" style="font-family:'Avenir-Book', 'Avenir';font-size:50px;">3</text>
                </g>
            </g>
            <g id="_2" serif:id="2">
                <g transform="matrix(0.46548,-0.489808,0.46548,0.489808,365.129,1310.88)">
                    <circle cx="508.04" cy="580.926" r="54.534" style="fill:rgb(167,215,35);"/>
                </g>
                <g transform="matrix(0.939497,0,0,0.988599,549.851,841.855)">
                    <text x="328.504px" y="528.241px" style="font-family:'Avenir-Book', 'Avenir';font-size:50px;">2</text>
                </g>
            </g>
            <g id="_32" serif:id="3">
                <g transform="matrix(0.46548,-0.489808,0.46548,0.489808,371.087,1862.54)">
                    <circle cx="508.04" cy="580.926" r="54.534" style="fill:rgb(91,204,209);"/>
                </g>
                <g transform="matrix(0.939497,0,0,0.988599,555.81,1393.52)">
                    <text x="328.504px" y="528.241px" style="font-family:'Avenir-Book', 'Avenir';font-size:50px;">3</text>
                </g>
            </g>
            <g id="_21" serif:id="2">
                <g transform="matrix(0.46548,-0.489808,0.46548,0.489808,374.047,1021.65)">
                    <circle cx="508.04" cy="580.926" r="54.534" style="fill:rgb(167,215,35);"/>
                </g>
                <g transform="matrix(0.939497,0,0,0.988599,558.77,552.632)">
                    <text x="328.504px" y="528.241px" style="font-family:'Avenir-Book', 'Avenir';font-size:50px;">2</text>
                </g>
            </g>
            <g id="_1" serif:id="1">
                <g transform="matrix(0.658288,0,0,0.692693,543.579,374.05)">
                    <circle cx="508.04" cy="580.926" r="54.534" style="fill:rgb(186,176,250);"/>
                </g>
                <g transform="matrix(0.939497,0,0,0.988599,554.918,271.733)">
                    <text x="328.504px" y="528.241px" style="font-family:'Avenir-Book', 'Avenir';font-size:50px;">1</text>
                </g>
            </g>
            <g id="_11" serif:id="1">
                <g transform="matrix(0.658288,0,0,0.692693,221.28,226.553)">
                    <circle cx="508.04" cy="580.926" r="54.534" style="fill:rgb(186,176,250);"/>
                </g>
                <g transform="matrix(0.939497,0,0,0.988599,232.619,124.236)">
                    <text x="328.504px" y="528.241px" style="font-family:'Avenir-Book', 'Avenir';font-size:50px;">1</text>
                </g>
            </g>
            <g id="_22" serif:id="2">
                <g transform="matrix(0.46548,-0.489808,0.46548,0.489808,47.6958,1157.87)">
                    <circle cx="508.04" cy="580.926" r="54.534" style="fill:rgb(167,215,35);"/>
                </g>
                <g transform="matrix(0.939497,0,0,0.988599,232.419,688.846)">
                    <text x="328.504px" y="528.241px" style="font-family:'Avenir-Book', 'Avenir';font-size:50px;">2</text>
                </g>
            </g>
        </g>
        <g id="Trunk-commits" serif:id="Trunk commits" transform="matrix(1,0,0,1,186.521,6.96782)">
            <g transform="matrix(0.658288,0,0,0.692693,63.6819,151.991)">
                <circle cx="508.04" cy="580.926" r="54.534" style="fill:rgb(103,103,103);"/>
            </g>
            <g transform="matrix(0.46548,-0.489808,0.46548,0.489808,220.014,2368.28)">
                <circle cx="508.04" cy="580.926" r="54.534" style="fill:rgb(103,103,103);"/>
            </g>
            <g transform="matrix(0.46548,-0.489808,0.46548,0.489808,-106.337,2504.49)">
                <circle cx="508.04" cy="580.926" r="54.534" style="fill:rgb(103,103,103);"/>
            </g>
        </g>
        <g id="Commands" transform="matrix(1,0,0,1,186.521,6.96782)">
            <g transform="matrix(0.939497,0,0,0.988599,-264.22,64.6449)">
                <text x="1274.37px" y="733.631px" style="font-family:'Avenir-Black', 'Avenir', sans-serif;font-weight:800;font-size:45.833px;fill:rgb(103,103,103);">mob start</text>
            </g>
            <g transform="matrix(0.939497,5.48783e-17,-5.21526e-17,0.988599,-263.516,349.522)">
                <text x="1274.37px" y="733.631px" style="font-family:'Avenir-Black', 'Avenir', sans-serif;font-weight:800;font-size:45.833px;fill:rgb(103,103,103);">mob next</text>
            </g>
            <g transform="matrix(0.939497,0,0,0.988599,-263.114,638.32)">
                <text x="1274.37px" y="733.631px" style="font-family:'Avenir-Black', 'Avenir', sans-serif;font-weight:800;font-size:45.833px;fill:rgb(103,103,103);">mob start</text>
            </g>
            <g transform="matrix(0.939497,5.48783e-17,-5.21526e-17,0.988599,-262.409,919.242)">
                <text x="1274.37px" y="733.631px" style="font-family:'Avenir-Black', 'Avenir', sans-serif;font-weight:800;font-size:45.833px;fill:rgb(103,103,103);">mob next</text>
            </g>
            <g transform="matrix(0.939497,0,0,0.988599,-262.409,1189.06)">
                <text x="1274.37px" y="733.631px" style="font-family:'Avenir-Black', 'Avenir', sans-serif;font-weight:800;font-size:45.833px;fill:rgb(103,103,103);">mob start</text>
            </g>
            <g transform="matrix(0.939497,5.48783e-17,-5.21526e-17,0.988599,-263.114,1430.09)">
                <text x="1274.37px" y="733.631px" style="font-family:'Avenir-Black', 'Avenir', sans-serif;font-weight:800;font-size:45.833px;fill:rgb(103,103,103);">mob done</text>
            </g>
            <g transform="matrix(0.939497,5.48783e-17,-5.21526e-17,0.988599,-376.769,1690.69)">
                <text x="1274.37px" y="733.631px" style="font-family:'Avenir-Black', 'Avenir', sans-serif;font-weight:800;font-size:45.833px;fill:rgb(103,103,103);">git commit and push</text>
            </g>
        </g>
        <g id="Descriptions" transform="matrix(1,0,0,1,186.521,6.96782)">
            <g transform="matrix(0.939497,0,0,0.988599,-263.146,212.857)">
                <text x="1274.37px" y="733.631px" style="font-family:'Avenir-Book', 'Avenir';font-size:41.667px;fill:rgb(103,103,103);">edit foo</text>
            </g>
            <g transform="matrix(0.813628,-0.4943,0.469749,0.856152,-917.527,521.974)">
                <text x="1274.37px" y="733.631px" style="font-family:'Avenir-Book', 'Avenir';font-size:41.667px;fill:rgb(103,103,103);">trunk</text>
            </g>
            <g transform="matrix(0.813628,-0.4943,0.469749,0.856152,-762.639,587.247)">
                <text x="1274.37px" y="733.631px" style="font-family:'Avenir-Book', 'Avenir';font-size:41.667px;fill:rgb(103,103,103);">mob featur<tspan x="1478.83px 1502px " y="733.631px 733.631px ">e </tspan>branch</text>
            </g>
            <g transform="matrix(0.939497,0,0,0.988599,-263.146,780.555)">
                <text x="1274.37px" y="733.631px" style="font-family:'Avenir-Book', 'Avenir';font-size:41.667px;fill:rgb(103,103,103);">edit bar</text>
            </g>
            <g transform="matrix(0.939497,0,0,0.988599,-263.146,1322.2)">
                <text x="1274.37px" y="733.631px" style="font-family:'Avenir-Book', 'Avenir';font-size:41.667px;fill:rgb(103,103,103);">edit baz</text>
            </g>
            <g transform="matrix(0.939497,0,0,0.988599,-678.15,1546.76)">
                <text x="1274.37px" y="775.297px" style="font-family:'Avenir-Book', 'Avenir';font-size:41.667px;fill:rgb(103,103,103);">foo, bar<tspan x="1416.37px 1427.95px " y="775.297px 775.297px ">, </tspan>baz staged for commit</text>
            </g>
        </g>
        <g id="X" transform="matrix(1,4.39026e-16,0,1,186.521,6.96782)">
            <g transform="matrix(0.676613,0,0,0.711976,302.714,622.73)">
                <path d="M851.063,2132.54L812.852,2095.79L887.593,2170.53" style="fill:rgb(47,47,47);stroke:rgb(103,103,103);stroke-width:14.46px;"/>
            </g>
            <g transform="matrix(4.14306e-17,-0.711976,0.676613,4.35959e-17,-565.336,2746.82)">
                <path d="M851.063,2132.54L812.852,2095.79L887.593,2170.53" style="fill:rgb(47,47,47);stroke:rgb(103,103,103);stroke-width:14.46px;"/>
            </g>
        </g>
        <g id="X1" serif:id="X" transform="matrix(1,4.39026e-16,0,1,186.521,6.96782)">
            <g transform="matrix(0.676613,0,0,0.711976,-19.5551,623.718)">
                <path d="M851.063,2132.54L812.852,2095.79L887.593,2170.53" style="fill:rgb(47,47,47);stroke:rgb(103,103,103);stroke-width:14.46px;"/>
            </g>
            <g transform="matrix(4.14306e-17,-0.711976,0.676613,4.35959e-17,-887.605,2747.81)">
                <path d="M851.063,2132.54L812.852,2095.79L887.593,2170.53" style="fill:rgb(47,47,47);stroke:rgb(103,103,103);stroke-width:14.46px;"/>
            </g>
        </g>
    </g>
</svg>
